<?xml version="1.0" encoding="iso-8859-1"?>
<!-- Generator: Adobe Illustrator 19.0.0, SVG Export Plug-In . SVG Version: 6.00 Build 0)  -->
<svg version="1.1" id="Capa_1" xmlns="http://www.w3.org/2000/svg" xmlns:xlink="http://www.w3.org/1999/xlink" x="0px" y="0px"
	 viewBox="0 0 511.999 511.999" style="enable-background:new 0 0 511.999 511.999;" xml:space="preserve">
<linearGradient id="SVGID_1_" gradientUnits="userSpaceOnUse" x1="0.0854" y1="257.3115" x2="512.9765" y2="257.3115" gradientTransform="matrix(0.9983 0 0 -0.9983 -0.0852 512.8635)">
	<stop  offset="0" style="stop-color:#21212a"/>
	<stop  offset="0.021" style="stop-color:#21212a"/>
	<stop  offset="0.293" style="stop-color:#21212a"/>
	<stop  offset="0.554" style="stop-color:#21212a"/>
	<stop  offset="0.796" style="stop-color:#21212a"/>
	<stop  offset="1" style="stop-color:#21212a"/>
</linearGradient>
<path style="fill:url(#SVGID_1_);" d="M509.174,379.531c3.68,7.425,2.25,16.365-3.382,22.443
	c-19.654,21.221-41.386,39.696-64.593,54.913c-3.375,2.214-7.174,3.271-10.929,3.271c-6.505,0.001-12.881-3.173-16.714-9.019
	c-6.047-9.22-3.473-21.597,5.748-27.643c8.403-5.511,16.595-11.513,24.54-17.977c-3.254-0.391-6.683-0.83-10.301-1.323
	c-7.515-1.025-13.801-6.22-16.222-13.409c-2.422-7.188-0.561-15.128,4.803-20.491c41.659-41.658,49.25-100.093,49.903-154.284
	c-1.837,1.613-3.654,3.138-5.432,4.572c-5.322,4.295-12.474,5.566-18.948,3.37c-6.477-2.195-11.378-7.553-12.991-14.2
	C407.098,96.197,315.626,37.961,314.705,37.386c-9.353-5.841-12.2-18.156-6.359-27.51c5.842-9.353,18.158-12.198,27.51-6.359
	c1.102,0.688,27.359,17.242,57.3,49.637c31.074,33.618,54.872,72.235,69.943,113.192c4.651-7.205,7.454-14.419,8.194-21.323
	c1.131-10.551,10.354-18.376,20.916-17.81c10.598,0.566,18.901,9.325,18.901,19.937c0,8.159,0.196,17.018,0.403,26.398
	c1.277,57.668,2.961,133.496-36.666,194.703c9.45,0.514,14.116,0.29,14.728,0.254C497.79,367.745,505.505,372.128,509.174,379.531z
	 M394.212,188.643c-0.351-0.731-0.675-1.404-0.964-2.017c-4.708-9.971-16.604-14.237-26.578-9.533
	c-9.971,4.707-14.24,16.606-9.533,26.578c0.327,0.693,0.692,1.45,1.088,2.275c5.556,11.558,17.12,35.609,17.12,77.05
	c0,11.515-2.325,40.581-23.861,61.731c-19.015,18.672-49.156,27.772-89.577,27.035c-29.656-0.538-52.527-9.659-69.918-27.883
	c-6.998-7.333-12.61-15.666-17.11-24.358c8.763,2.843,18.114,4.321,27.769,4.321c14.014,0,27.692-6.923,40.92-13.617
	c6.018-3.047,16.091-8.144,19.475-8.344c3.169,0,9.302,4.819,12.463,8.964l-0.099-0.133l32.171-23.654
	c-1.891-2.57-19.195-25.108-44.535-25.108c-12.515,0-24.654,6.143-37.506,12.648c-7.329,3.709-18.405,9.314-22.889,9.314
	c-22.691,0-45.588-14.908-45.916-48.187c0.275-13.903,16.679-24.459,16.966-24.603c0.921-0.231,1.891-0.336,2.893-0.336
	c12.039,0,29.051,15.31,29.051,15.31s3.824-25.044-8.984-35.937c1.307-6.242,35.478-22.732,38.236-24.765
	c3.774-2.758,8.211-6.88,10.678-11.961c1.742-3.193,4.293-8.506,4.002-15.184c-0.27-4.447-4.854-7.035-36.976-7.035
	c-2.484,0-5.132,0.016-7.955,0.047c-0.07,0.001-0.141,0.001-0.211,0.001c-10.709,0-24.142-10.947-24.746-18.968
	c4.646-16.985,18.406-39.769,33.941-49.913c0,0-0.378-0.014-1.085-0.014c-6.745,0-46.384,1.266-68.793,27.965
	c-9.889-2.149-16.734-2.995-25.869-2.995h-0.086c-12.04,0.007-22.854,1.533-30.946,3.993c-5.243-3.295-28.95-28.341-28.95-48.915
	c0,0-24.957,22.65-24.957,85.85v3.993c-6.08,8.343-31.573,49.049-32.89,131.222C0.018,263.963,0,264.451,0,264.944
	c0,0.386,0.003,0.949,0.015,1.677C0.005,267.779,0,268.946,0,270.122h0.112C0.77,287.456,5.186,340.92,34.033,393.47
	c18.98,34.572,44.88,62.091,76.983,81.795c39.194,24.054,87.488,36.25,143.54,36.25c34.828,0,68.961-4.99,101.451-14.833
	c10.553-3.196,16.516-14.343,13.319-24.896c-3.197-10.553-14.345-16.52-24.896-13.319c-28.733,8.705-58.971,13.118-89.873,13.118
	c-87.647,0-150.066-32.747-185.52-97.33c-26.567-48.392-28.888-98.64-29.088-107.879c0.752-76.09,24.248-109.205,25.263-110.597
	l7.662-10.514l8.155-10.432l17.435-5.301c1.744-0.53,8.294-2.26,19.331-2.267h0.086c7.164,0,14.022,0.701,20.381,2.083l5.225,1.136
	c4.995,12.241,14.523,22.556,25.804,29.739c-3.734,3.915-6.76,8.201-8.927,13.069l-0.603,0.151l-3.921,1.961
	c-9.468,4.735-35.349,23.974-38.687,55.817c-0.234,1.223-0.356,2.484-0.356,3.774c0,0.583,0.005,1.164,0.014,1.744
	c-0.006,0.307-0.011,0.616-0.012,0.925c-0.167,6.507-1.094,83.904,46.115,133.581c24.802,26.101,57.864,39.705,98.269,40.44
	c1.74,0.031,3.46,0.047,5.173,0.047c49.032-0.001,87.071-12.948,113.108-38.516c32.325-31.744,35.815-73.67,35.815-90.222
	C415.276,232.454,400.516,201.753,394.212,188.643z"/>
<g>
</g>
<g>
</g>
<g>
</g>
<g>
</g>
<g>
</g>
<g>
</g>
<g>
</g>
<g>
</g>
<g>
</g>
<g>
</g>
<g>
</g>
<g>
</g>
<g>
</g>
<g>
</g>
<g>
</g>
</svg>
