<svg height="512pt" viewBox="0 0 512.00001 512" width="512pt" xmlns="http://www.w3.org/2000/svg" xmlns:xlink="http://www.w3.org/1999/xlink"><linearGradient id="a" gradientUnits="userSpaceOnUse" x1=".000004" x2="512.000292435" y1="255.98620121" y2="255.98620121"><stop offset="0" stop-color="#21212a"/><stop offset=".0208" stop-color="#21212a"/><stop offset=".2931" stop-color="#21212a"/><stop offset=".5538" stop-color="#21212a"/><stop offset=".7956" stop-color="#21212a"/><stop offset="1" stop-color="#21212a"/></linearGradient><path d="m511.921875 72.027344c-.003906-8.214844-5.027344-15.585938-12.671875-18.59375-12.476562-4.914063-122.871094-48.152344-155.546875-53.199219-.230469-.035156-.460937-.054687-.691406-.082031-.160157-.019532-.316407-.042969-.476563-.058594-.589844-.0546875-1.175781-.0820312-1.761718-.0859375-.042969 0-.082032-.0078125-.125-.0078125-.011719 0-.023438 0-.035157 0-.300781 0-168.941406 0-169.222656 0-.011719 0-.023437 0-.039063 0-.039062 0-.078124.0078125-.121093.0078125-.585938.0039063-1.175781.03125-1.765625.0859375-.160156.015625-.316406.039062-.472656.058594-.230469.027344-.460938.046875-.691407.082031-32.679687 5.046875-143.074219 48.285156-155.550781 53.199219-7.644531 3.007812-12.6679688 10.378906-12.671875 18.59375l-.078125 125.980468c-.00390625 6.101563 2.777344 11.871094 7.554688 15.667969 3.570312 2.839844 7.96875 4.339844 12.441406 4.339844 1.507812 0 3.027344-.167969 4.527344-.515625l61.539062-14.300781v228.785156c0 44.105469 35.882812 79.988281 79.988281 79.988281h179.898438c44.105469 0 79.988281-35.882812 79.988281-79.988281 0-11.042969-8.953125-19.996094-20-19.996094-11.042969 0-19.996094 8.953125-19.996094 19.996094 0 22.054687-17.941406 39.996094-39.992187 39.996094h-179.898438c-22.050781 0-39.992187-17.941407-39.992187-39.996094v-303.953125c0-11.042969-8.953125-19.996094-19.996094-19.996094-11.046875 0-20 8.953125-20 19.996094v34.109375l-46.050781 10.699219.050781-87.136719c40.699219-15.769531 95.773438-35.980469 123.101562-43.378906l76.101563 100.675781c1.222656 1.863281 2.757813 3.5625 4.636719 4.984375 3.367187 2.539063 7.277344 3.851563 11.195312 4.015625.304688.015625.609375.003906.914063.003906.296875 0 .59375.011719.886719-.003906 3.921874-.164062 7.832031-1.472656 11.199218-4.015625 1.878906-1.421875 3.414063-3.121094 4.636719-4.984375l76.101563-100.675781c27.328124 7.398437 82.402343 27.609375 123.101562 43.378906l.054688 87.136719-46.054688-10.699219v-34.109375c0-11.042969-8.953125-19.996094-20-19.996094-11.042969 0-19.996094 8.953125-19.996094 19.996094v203.96875c0 11.042969 8.953125 19.996094 19.996094 19.996094 11.046875 0 20-8.953125 20-19.996094v-128.800781l61.539062 14.300781c1.5.347656 3.019532.515625 4.527344.515625 4.472656 0 8.871094-1.503906 12.441406-4.339844 4.777344-3.796875 7.558594-9.566406 7.554688-15.667969zm-211.484375-31.996094-44.4375 58.785156-44.433594-58.785156c11.890625.007812 76.394532.007812 88.871094 0zm0 0" fill="url(#a)"/></svg>
